<svg xmlns="http://www.w3.org/2000/svg"  viewBox="0 0 48 48" width="48px" height="48px" baseProfile="basic"><path fill="#8a4581" d="M36.775,40.224c-9.816,0.121-19.632,0.241-29.448,0.362c-0.253,0.003-0.521,0.002-0.737-0.129 c-0.397-0.24-0.444-0.788-0.445-1.253C6.123,29.191,6.648,19.176,7.715,9.219c0.046-0.43,0.103-0.885,0.366-1.228 c0.496-0.644,1.454-0.555,2.266-0.533c12.163,0.344,18.463-0.19,29.039-0.144c0.569,0.002,1.197-0.113,1.643,0.24 c0.422,0.334,0.533,0.918,0.616,1.45c0.336,2.158,0.862,23.103-0.785,30.355c-0.112,0.492-0.549,0.835-1.053,0.839L36.775,40.224z"/><path fill="#1d1d1b" d="M36.775,39.724c-5.823,0.072-11.646,0.143-17.469,0.215c-2.87,0.035-5.74,0.071-8.61,0.106 c-0.707,0.009-1.414,0.017-2.121,0.026c-0.333,0.004-0.665,0.009-0.998,0.012c-0.392,0.004-0.77,0.069-0.895-0.377 c-0.147-0.525-0.039-1.203-0.037-1.743c0.002-0.745,0.007-1.49,0.014-2.234c0.061-5.793,0.304-11.584,0.729-17.361 c0.213-2.889,0.471-5.774,0.774-8.655C8.218,9.189,8.187,8.405,8.71,8.102c0.457-0.265,1.137-0.158,1.638-0.143 c1.37,0.041,2.741,0.068,4.112,0.088c4.476,0.064,8.95-0.003,13.425-0.098c2.142-0.045,4.285-0.09,6.428-0.115 c1.128-0.013,2.256-0.021,3.384-0.022c0.595-0.001,1.191,0.01,1.786,0.001c0.7-0.011,1.315-0.098,1.554,0.698 c0.152,0.507,0.13,0.573,0.171,1.068c0.03,0.359,0.051,0.72,0.071,1.08c0.062,1.136,0.1,2.272,0.131,3.409 c0.09,3.269,0.113,6.541,0.075,9.811c-0.04,3.411-0.135,6.828-0.414,10.229c-0.113,1.37-0.251,2.742-0.487,4.097 c-0.102,0.585-0.102,1.394-0.814,1.493c-0.532,0.074-1.123,0.01-1.66,0.014C37.663,39.716,37.219,39.72,36.775,39.724 c-0.643,0.006-0.645,1.006,0,1c1.008-0.009,2.027,0.03,3.033-0.026c1.751-0.098,1.763-2.243,1.941-3.566 c0.459-3.417,0.594-6.879,0.681-10.322c0.092-3.63,0.092-7.263,0.022-10.893c-0.043-2.21-0.038-4.453-0.274-6.653 c-0.072-0.674-0.177-1.433-0.665-1.943c-0.765-0.8-2.198-0.509-3.191-0.509c-2.427-0.002-4.854,0.028-7.281,0.073 C26.41,6.972,21.78,7.093,17.148,7.072c-1.311-0.006-2.622-0.021-3.933-0.046c-1.347-0.025-2.779-0.215-4.119-0.051 c-1.141,0.139-1.71,0.892-1.851,1.992c-0.189,1.478-0.312,2.968-0.448,4.452c-0.56,6.099-0.916,12.216-1.068,18.338 c-0.039,1.572-0.065,3.144-0.077,4.717c-0.006,0.745-0.009,1.49-0.008,2.234c0,0.516-0.035,1.069,0.172,1.554 c0.512,1.199,2.227,0.815,3.258,0.803c1.539-0.019,3.078-0.038,4.617-0.057c6.197-0.076,12.395-0.152,18.592-0.229 c1.497-0.018,2.995-0.037,4.492-0.055C37.418,40.716,37.42,39.716,36.775,39.724z"/><path fill="#d6e5e5" d="M34.59,18.736C33.9,17.408,31.5,15,27.5,15c-2.98,0-4.46,0.128-6.99,0.145 c-0.86,0-1.62,0.477-1.89,1.174c-1.13,2.961-1.23,3.208-2.12,5.489c-2,0-2.19,0.102-3,0c-0.6,1.43-1.36,2.876-2.18,4.221 l4.18,0.034l-1.31,3.897c-0.36,1.081,0.59,2.162,1.91,2.17c2.31,0.009,5.33-0.111,6.4-0.111C34.5,32.019,37.5,24.361,34.59,18.736 z M25.5,27.765h-6c0.94-3.029,2.12-5.599,3.19-8.595c0.8,0.026,3.42,0.034,3.94,0.034C33.5,19.255,31.5,27.765,25.5,27.765z"/><path fill="#1d1d1b" d="M36.045,21.726c-0.198-1.536-0.744-3.109-1.764-4.294c-1.466-1.703-3.652-2.676-5.864-2.888 c-1.624-0.155-3.303-0.019-4.932,0.033c-0.723,0.023-1.446,0.045-2.17,0.056c-0.753,0.012-1.476-0.022-2.153,0.365 c-0.661,0.378-0.928,0.941-1.189,1.623c-0.246,0.642-0.491,1.284-0.738,1.925c-0.356,0.924-0.717,1.846-1.078,2.769 c-0.884,0.02-1.782,0.095-2.658-0.008c-0.153-0.018-0.371,0.104-0.432,0.248c-0.618,1.463-1.361,2.865-2.18,4.224 c-0.127,0.211-0.078,0.414,0.048,0.555c0.079,0.113,0.204,0.196,0.384,0.198c1.163,0.009,2.325,0.017,3.487,0.026 c-0.351,1.037-0.708,2.073-1.046,3.115c-0.272,0.838-0.107,1.69,0.564,2.297c1.005,0.909,2.507,0.665,3.751,0.644 c4.667-0.079,9.816,0.24,13.9-2.427C34.829,28.324,36.486,25.144,36.045,21.726z M32.387,28.642 c-3.225,2.761-7.61,2.811-11.62,2.91c-1.428,0.036-2.857,0.074-4.286,0.077c-1.044,0.002-2.151-0.472-1.756-1.692 c0.405-1.252,0.838-2.495,1.256-3.742c0.105-0.313-0.172-0.631-0.482-0.633c-1.11-0.008-2.219-0.016-3.329-0.025 c0.599-1.042,1.154-2.107,1.635-3.21c0.892,0.065,1.804-0.018,2.695-0.02c0.239,0,0.401-0.159,0.482-0.367 c0.332-0.847,0.664-1.695,0.993-2.543c0.376-0.973,0.669-2.045,1.144-2.971c0.317-0.617,0.957-0.775,1.596-0.786 c0.631-0.011,1.261-0.018,1.892-0.036c1.208-0.035,2.416-0.08,3.624-0.096c1.351-0.018,2.661-0.012,3.959,0.41 c0.962,0.313,1.877,0.816,2.642,1.48c1.109,0.962,1.738,2.198,2.073,3.616C35.578,23.861,34.601,26.746,32.387,28.642z"/><path fill="#1d1d1b" d="M29.479,19.358c-0.994-0.542-2.109-0.647-3.221-0.654c-1.189-0.007-2.38-0.002-3.568-0.037 c-0.232-0.007-0.409,0.162-0.482,0.367c-1.033,2.878-2.272,5.679-3.189,8.598c-0.06,0.192-0.001,0.344,0.106,0.452 c0.016,0.021,0.035,0.037,0.055,0.055c0.006,0.004,0.011,0.009,0.017,0.012c0.078,0.065,0.174,0.113,0.305,0.113 c1.456,0,2.912,0,4.368,0c1.544,0,3.045,0.052,4.469-0.668c1.553-0.785,2.77-2.33,3.053-4.06 C31.664,21.862,31.005,20.19,29.479,19.358z M30.448,23.069c-0.122,1.487-1.127,2.831-2.404,3.551 c-1.229,0.693-2.556,0.645-3.913,0.645c-1.311,0-2.622,0-3.933,0c0.85-2.566,1.907-5.056,2.835-7.594 c0.883,0.02,1.766,0.025,2.648,0.03c0.892,0.005,1.783-0.021,2.645,0.249C29.742,20.394,30.568,21.603,30.448,23.069z"/></svg>